*******************************************************************************
                Science Friction (2012) WEBRip - RadioResearch
*******************************************************************************

-------------------------------------------------------------------------------
                              General Information
-------------------------------------------------------------------------------
Type.................: Movie



Video Format.........: AVI
Video Bitrate........: 1328
Resolution...........: 640 x 360
Color................: 8 bit
FPS..................: 24.000
Source...............: WEB 16 x 9
Original Format......: NTSC
Genre................: Horror / Sci-Fi / Drama
IMDb Rating..........: Not yet rated
Movie Information....: http://www.imdb.com/title/tt2189332/

-------------------------------------------------------------------------------
                               Post Information
-------------------------------------------------------------------------------
Posted by............: RadioResearch
Posted on............: 5/1/2013

-------------------------------------------------------------------------------
                                 Release Notes
-------------------------------------------------------------------------------
SEEDBOX SUPPORTED!!

When a dope run into Mexico goes terribly wrong due to a faulty GPS and an 
unseen entity, Jack (Spencer Heney), a quiet college student and a rowdy group 
of party girls-the Vamps- find themselves lost on the fabled road 
Walpurgisnacht. Fear emerges when their '67 convertible and their 300k delivery 
mysteriously go missing. They seek shelter and safety descending deeper into 
terror as they face a dangerous local named Billy (L.Paschal Tenet) who seems to 
be the key to the cursed Walpurgisnacht Road and the secret to survive. 
Desperation mounts as they are chased into the belly of a deep dark mine and 
even deeper into their own consciousness. The frantic group search for 
redemption as they dodge the inevitable.

Enjoy, and remember where you got it first!

RadioResearch

General
Complete name                            : G:Science Friction (2012) WEBRip - 
RadioResearchScience Friction {RadioResearch}.avi
Format                                   : AVI
Format/Info                              : Audio Video Interleave
File size                                : 849 MiB
Duration                                 : 1h 29mn
Overall bit rate                         : 1 328 Kbps

Video
ID                                       : 0
Format                                   : mp43
Codec ID                                 : mp43
Duration                                 : 1h 29mn
Bit rate                                 : 1 188 Kbps
Width                                    : 640 pixels
Height                                   : 360 pixels
Display aspect ratio                     : 16:9
Frame rate                               : 24.000 fps
Bits/(Pixel*Frame)                       : 0.215
Stream size                              : 760 MiB (89%)

Audio
ID                                       : 1
Format                                   : MPEG Audio
Format version                           : Version 1
Format profile                           : Layer 3
Mode                                     : Joint stereo
Mode extension                           : MS Stereo
Codec ID                                 : 55
Codec ID/Hint                            : MP3
Duration                                 : 1h 29mn
Bit rate mode                            : Constant
Bit rate                                 : 128 Kbps
Channel(s)                               : 2 channels
Sampling rate                            : 44.1 KHz
Compression mode                         : Lossy
Stream size                              : 81.8 MiB (10%)
Alignment                                : Aligned on interleaves
Interleave, duration                     : 26 ms (0.63 video frame)
Writing library                          : LAME3.98.2

AVI FILE MD5 HASH:  f5c2d10f1b642236ee9343d14ce021d0



-------------------------------------------------------------------------------
Generated with Cool NFO Creator - http://fly.to/coolbeans
-------------------------------------------------------------------------------
